<svg viewBox="0 0 96 96" xmlns="http://www.w3.org/2000/svg" xmlns:xlink="http://www.w3.org/1999/xlink" id="Icons_BatteryCharging" overflow="hidden"><path d="M41 65 10 65 10 29 37.38 29 39.82 23 8 23C5.79086 23 4 24.7909 4 27L4 67C4 69.2091 5.79086 71 8 71L41 71Z" fill="#89A64F"/><path d="M88 38 84 38 84 27C84 24.7909 82.2091 23 80 23L51 23 51 29 78 29 78 65 56 65 53.35 71 80 71C82.2091 71 84 69.2091 84 67L84 56 88 56C90.2091 56 92 54.2091 92 52L92 42C92 39.7909 90.2091 38 88 38Z" fill="#89A64F"/><path d="M47 46 47 16 30.69 55.97 45 56 45 80 60 46 47 46Z" fill="#89A64F"/></svg>