<svg viewBox="0 0 96 96" xmlns="http://www.w3.org/2000/svg" xmlns:xlink="http://www.w3.org/1999/xlink" id="Icons_Robber" overflow="hidden"><path d="M84.2 42 75.7 42C73.4 44.2 71.9 47.9 71.9 51.1 71.9 56 75.5 60 79.9 60 84.3 60 87.9 56 87.9 51.1 88 47.9 86.5 44.2 84.2 42Z" fill="#89A64F"/><path d="M78 30 82 30 83.3 27.4C83.6 26.7 83.1 26 82.4 26L77.6 26C76.9 26 76.4 26.8 76.7 27.4L78 30Z" fill="#89A64F"/><path d="M85 36C85 33.8 83.2 32 81 32L72.2 32 57.3 22.6C56.7 22.2 56 22 55.2 22L38.2 22C36.7 22 35.4 22.8 34.7 24.1L28.2 36.1C27.1 38 27.9 40.5 29.8 41.5 30.4 41.8 31.1 42 31.7 42 33.1 42 34.5 41.2 35.2 39.9L40.6 30 46.5 30 28.8 63 12.2 63C10 63 8.2 64.8 8.2 67 8.2 69.2 10 71 12.2 71L31.2 71C32.7 71 34 70.2 34.7 68.9L41.6 56.1 55 70.3 52.3 86.3C51.9 88.5 53.4 90.5 55.6 90.9 55.8 90.9 56 91 56.3 91 58.2 91 59.9 89.6 60.2 87.7L63.2 69.7C63.4 68.5 63 67.2 62.2 66.3L50.1 53.4 60.5 34 68.9 39.3C69.5 39.7 70.3 39.9 71 39.9L81 39.9C83.2 40 85 38.2 85 36Z" fill="#89A64F"/><circle cx="62.2" cy="13" r="8" fill="#89A64F"/></svg>