<svg viewBox="0 0 96 96" xmlns="http://www.w3.org/2000/svg" xmlns:xlink="http://www.w3.org/1999/xlink" id="Icons_USB" overflow="hidden"><path d="M80 45.14 80 40 75 40 75 21C75 17.6863 72.3137 15 69 15L52 15C48.6863 15 46 17.6863 46 21L46 74C46 75.1046 45.1046 76 44 76L27 76C25.8954 76 25 75.1046 25 74L25 56 30 56 30 50.86C31.7614 50.4052 32.9941 48.8192 33 47L33 23 30 23 30 14 16 14 16 23 13 23 13 47C13.0059 48.8192 14.2386 50.4052 16 50.86L16 56 21 56 21 74C21 77.3137 23.6863 80 27 80L44 80C47.3137 80 50 77.3137 50 74L50 21C50 19.8954 50.8954 19 52 19L69 19C70.1046 19 71 19.8954 71 21L71 40 66 40 66 45.14C64.2386 45.5948 63.0059 47.1808 63 49L63 73 66 73 66 82 80 82 80 73 83 73 83 49C82.9941 47.1808 81.7614 45.5948 80 45.14ZM20 18 26 18 26 23 20 23ZM76 78 70 78 70 73 76 73Z" fill="#89A64F"/></svg>