<svg viewBox="0 0 96 96" xmlns="http://www.w3.org/2000/svg" xmlns:xlink="http://www.w3.org/1999/xlink" id="Icons_Lightning" overflow="hidden"><g><path d="M82.1 43.5C82.1 40.7 80.9 38.1 78.8 36.3 76.7 34.5 73.9 33.7 71.1 34.2L71.1 34C71.1 30.2 69.3 26.5 66.1 24.3 63 22 59 21.4 55.3 22.6 52.2 16.8 45.5 13.8 39.1 15.4 32.7 16.9 28.1 22.6 28 29.2 23.6 28.4 19.1 30.1 16.4 33.6 13.6 37.1 13 41.8 14.8 45.9 16.6 50 20.5 52.7 25 53L25 53 73 53C78.2 52.8 82.1 48.6 82.1 43.5Z" fill="#89A64F"/><path d="M56.1 65 47.6 65 50.8 57 43.2 57 40.1 70 46.5 70 42.6 81Z" fill="#89A64F"/><path d="M67.1 61 62.8 61 64.4 57 60.7 57 59.1 63.5 62.3 63.5 60.3 69Z" fill="#89A64F"/><path d="M38.1 61 33.8 61 35.4 57 31.7 57 30.1 63.5 33.3 63.5 31.3 69Z" fill="#89A64F"/></g></svg>